<?xml version="1.0" encoding="UTF-8" standalone="no"?><!DOCTYPE svg PUBLIC "-//W3C//DTD SVG 1.1//EN" "http://www.w3.org/Graphics/SVG/1.1/DTD/svg11.dtd"><svg width="100%" height="100%" viewBox="0 0 30 30" version="1.1" xmlns="http://www.w3.org/2000/svg" xmlns:xlink="http://www.w3.org/1999/xlink" xml:space="preserve" xmlns:serif="http://www.serif.com/" style="fill-rule:evenodd;clip-rule:evenodd;stroke-linejoin:round;stroke-miterlimit:2;"><g><g><g><rect x="3.5" y="10.188" width="5.143" height="15.813" style="fill:#fbfbfb;"/></g></g><g><g><path d="M22.653,10.373c-0.054,-0.017 -0.106,-0.036 -0.164,-0.052c-0.069,-0.016 -0.138,-0.029 -0.208,-0.04c-0.273,-0.055 -0.572,-0.094 -0.923,-0.094c-2.999,0 -4.9,2.181 -5.527,3.024l-0,-3.024l-5.144,0l0,15.813l5.144,0l-0,-8.625c-0,0 3.887,-5.414 5.527,-1.438l0,10.063l5.142,0l-0,-10.671c-0,-2.389 -1.637,-4.38 -3.847,-4.956Z" style="fill:#fbfbfb;fill-rule:nonzero;"/></g></g><g><g><circle cx="6.016" cy="5.516" r="2.516" style="fill:#fbfbfb;"/></g></g></g></svg>